<svg width="50" height="50" viewBox="0 0 50 50" fill="none" xmlns="http://www.w3.org/2000/svg">
<g clip-path="url(#clip0_1_2)">
<path d="M21.913 44.8C34.0153 44.8 43.8261 34.7712 43.8261 22.4C43.8261 10.0288 34.0153 0 21.913 0C9.8108 0 0 10.0288 0 22.4C0 34.7712 9.8108 44.8 21.913 44.8Z" fill="white" fill-opacity="0.1"/>
<path d="M45.2784 18C45.0828 17.7 44.6916 17.7 44.398 17.9L44.3004 18C44.1048 18.2 44.0068 18.6 44.2024 18.9C46.9416 22.6 48.2132 27.3 47.724 31.9C47.2352 36.5 45.0828 40.8 41.6588 43.9C38.235 47 33.735 48.6 29.235 48.4C24.6372 48.2 20.3329 46.3 17.1046 43C13.8764 39.6 11.9198 35.2 11.822 30.5C11.6264 25.8 13.1916 21.3 16.2242 17.8C19.2568 14.3 23.3655 12 27.9633 11.5C32.4633 11 37.0611 12.3 40.6808 15.1C40.974 15.3 41.2676 15.3 41.4632 15L41.5612 14.9C41.7568 14.6 41.7568 14.2 41.4632 14C37.3546 11 32.2676 9.60004 27.1807 10.3C22.0937 11.1 17.4959 13.8 14.4633 18C11.3329 22.2 10.0611 27.4 10.7459 32.6C11.4307 37.8 14.1698 42.5 18.2785 45.6C21.6046 48.2 25.6155 49.6 29.822 49.6C34.6155 49.6 39.3111 47.8 42.8328 44.5C46.3548 41.2 48.6048 36.6 49.0936 31.7C49.4852 26.8 48.1156 21.9 45.2784 18Z" fill="white"/>
<path d="M37.6476 19.1999C37.7454 19.1999 37.7454 19.1999 37.6476 19.1999C37.941 18.7999 37.8432 18.3999 37.5497 18.1999C35.2019 16.4999 32.365 15.6999 29.4302 15.7999C26.5932 15.8999 23.7562 16.8999 21.5062 18.6999C19.2562 20.4999 17.4954 22.9999 16.7128 25.7999C15.9302 28.5999 15.9302 31.5999 16.8106 34.2999C17.691 37.0999 19.4519 39.4999 21.7997 41.2C24.1476 42.9 26.9845 43.8 29.8215 43.8C32.5606 43.8 35.2019 43 37.4519 41.4C39.7019 39.8999 41.4628 37.6999 42.5388 35.0999C43.6148 32.4999 43.9084 29.6999 43.4192 26.9999C43.126 25.1999 42.3432 23.3999 41.3648 21.7999C41.2672 21.6999 41.1692 21.5999 40.9736 21.4999C40.778 21.4999 40.68 21.4999 40.4844 21.5999C40.4844 21.5999 40.3868 21.5999 40.3868 21.6999C40.1912 21.8999 40.0932 22.2999 40.2888 22.4999C41.2672 23.8999 41.854 25.4999 42.1476 27.1999C42.7344 30.0999 42.2452 33.0999 40.876 35.6999C39.5062 38.2999 37.2562 40.3 34.615 41.4C31.9736 42.5 28.941 42.6 26.2019 41.8C23.4628 40.9 21.115 39.0999 19.4519 36.5999C17.7888 34.0999 17.2019 31.1999 17.4954 28.1999C17.7888 25.2999 19.0606 22.4999 21.115 20.3999C23.1693 18.2999 25.9084 16.9999 28.7454 16.7999C31.5823 16.4999 34.5171 17.2999 36.865 18.9999C37.1584 19.4999 37.4519 19.4999 37.6476 19.1999Z" fill="white"/>
<path d="M27.474 23.7C29.0392 23.1 30.8979 23.1 32.4632 23.8C32.6588 23.9 32.9523 23.9 33.1479 23.7C33.2458 23.6 33.2458 23.6 33.2458 23.5C33.3436 23.3 33.3436 23.2 33.2458 23C33.1479 22.8 33.0501 22.7 32.9523 22.6C30.8001 21.6 28.2566 21.7 26.1045 22.9C23.9523 24.1 22.4849 26.2 22.1914 28.6C21.8001 31 22.5827 33.5 24.2458 35.3C25.9088 37.1 28.2566 38 30.7023 37.7C33.0501 37.4 35.2023 36.1 36.474 34C37.7458 31.9 37.9414 29.3 37.061 27C36.9632 26.8 36.8653 26.7 36.7675 26.6C36.5718 26.5 36.474 26.5 36.2784 26.6C36.1806 26.6 36.0827 26.7 36.0827 26.7C35.8871 26.9 35.7892 27.2 35.8871 27.4C36.474 29 36.474 30.9 35.7892 32.5C35.1045 34.1 33.8327 35.4 32.1697 36C30.6045 36.6 28.7458 36.6 27.1806 35.9C25.6153 35.2 24.3436 33.9 23.7566 32.2C23.1697 30.6 23.1697 28.7 23.8545 27.1C24.6371 25.5 25.9088 24.3 27.474 23.7Z" fill="white"/>
<path d="M48.996 12.5H47.7244L49.4852 10.7C49.6808 10.4 49.6808 10 49.4852 9.8C49.2896 9.6 48.8984 9.5 48.6048 9.8L46.844 11.6V10.2C46.844 9.8 46.5504 9.6 46.2568 9.6C45.8656 9.6 45.67 9.9 45.67 10.2V12.8L30.4092 28.3C29.92 28.1 29.4309 28.1 29.0396 28.4C28.6483 28.6 28.3548 29.1 28.257 29.5C28.1592 30 28.257 30.5 28.5505 30.9C28.844 31.3 29.3331 31.5 29.8222 31.5C30.0179 31.5 30.2135 31.5 30.4092 31.4C30.8005 31.2 31.094 30.9 31.2896 30.5C31.4852 30.1 31.4852 29.6 31.2896 29.2L46.4528 13.8H48.996C49.3876 13.8 49.5832 13.5 49.5832 13.2C49.6808 12.8 49.3876 12.5 48.996 12.5Z" fill="white"/>
</g>
<defs>
<clipPath id="clip0_1_2">
<rect width="50" height="49.6" fill="white"/>
</clipPath>
</defs>
</svg>
