<svg width="21" height="29" viewBox="0 0 21 29" fill="none" xmlns="http://www.w3.org/2000/svg">
<path d="M1 28.4C0.7 28.4 0.5 28.3 0.3 28.1C0.1 27.9 0 27.6 0 27.4V1C0 0.4 0.4 0 1 0C1.3 0 1.5 0.1 1.7 0.3C1.9 0.5 2 0.8 2 1V1.6H7C7.1 1.6 7.1 1.6 7.2 1.6C7.3 1.6 7.3 1.6 7.4 1.6H13.1C13.2 1.6 13.2 1.6 13.3 1.6C13.4 1.6 13.4 1.6 13.5 1.6H19.4C20 1.6 20.4 2.1 20.4 2.6V15.2C20.4 15.8 19.9 16.2 19.4 16.2H2V27.3C2 27.6 1.9 27.8 1.7 28C1.6 28.3 1.3 28.4 1 28.4ZM18.4 14.2V3.7H14.3V14.2H18.4ZM12.2 14.2V3.7H8.2V14.2H12.2ZM6.1 14.2V3.7H2V14.2H6.1Z" fill="#E30B25"/>
</svg>
