<svg width="50" height="48" viewBox="0 0 50 48" fill="none" xmlns="http://www.w3.org/2000/svg">
<g clip-path="url(#clip0_3_21)">
<path d="M20.7071 41.4141C32.1433 41.4141 41.4141 32.1433 41.4141 20.7071C41.4141 9.27087 32.1433 0 20.7071 0C9.27087 0 0 9.27087 0 20.7071C0 32.1433 9.27087 41.4141 20.7071 41.4141Z" fill="#E30B25" fill-opacity="0.1"/>
<path d="M30.21 47.9799C30.21 45.478 28.1432 43.4112 25.6413 43.4112H22.7042C20.2023 43.4112 18.1355 45.478 18.1355 47.9799H19.2776C19.2776 46.1307 20.8006 44.6077 22.6498 44.6077H25.5869C27.4362 44.6077 28.9591 46.1307 28.9591 47.9799H30.21Z" fill="#234BA7"/>
<path d="M20.0929 42.9215H28.0339C29.0129 42.9215 29.7744 42.1601 29.7744 41.1811V37.5369C29.7744 36.5579 29.0129 35.7965 28.0339 35.7965H20.0929C19.1139 35.7965 18.3525 36.5579 18.3525 37.5369V41.1811C18.3525 42.1601 19.1683 42.9215 20.0929 42.9215ZM19.549 37.5369C19.549 37.2106 19.821 36.9386 20.1473 36.9386H28.0883C28.4146 36.9386 28.6866 37.2106 28.6866 37.5369V41.1811C28.6866 41.5074 28.4146 41.7793 28.0883 41.7793H20.0929C19.7666 41.7793 19.4946 41.5074 19.4946 41.1811V37.5369H19.549Z" fill="#234BA7"/>
<path d="M21.4528 37.972H22.595V40.7459H21.4528V37.972Z" fill="#234BA7"/>
<path d="M25.7497 37.972H26.8919V40.7459H25.7497V37.972Z" fill="#234BA7"/>
<path d="M16.6667 38.0265H17.8088V40.6916H16.6667V38.0265Z" fill="#234BA7"/>
<path d="M30.5901 38.0265H31.7323V40.6916H30.5901V38.0265Z" fill="#234BA7"/>
<path d="M37.1174 47.9799C37.1174 46.1307 38.6404 44.6077 40.4897 44.6077H43.4267C45.276 44.6077 46.7989 46.1307 46.7989 47.9799H47.9411C47.9411 45.478 45.8742 43.4112 43.3723 43.4112H40.4353C37.9333 43.4112 35.8665 45.478 35.8665 47.9799H37.1174Z" fill="#234BA7"/>
<path d="M37.9335 35.7965C36.9544 35.7965 36.193 36.5579 36.193 37.5369V41.1811C36.193 42.1601 36.9544 42.9215 37.9335 42.9215H45.8744C46.8534 42.9215 47.6149 42.1601 47.6149 41.1811V37.5369C47.6149 36.5579 46.8534 35.7965 45.8744 35.7965H37.9335ZM46.4183 37.5369V41.1811C46.4183 41.5074 46.1464 41.7793 45.82 41.7793H37.9335C37.6071 41.7793 37.3351 41.5074 37.3351 41.1811V37.5369C37.3351 37.2106 37.6071 36.9386 37.9335 36.9386H45.8744C46.1464 36.9386 46.4183 37.2106 46.4183 37.5369Z" fill="#234BA7"/>
<path d="M39.2381 37.972H40.3803V40.7459H39.2381V37.972Z" fill="#234BA7"/>
<path d="M43.535 37.972H44.6772V40.7459H43.535V37.972Z" fill="#234BA7"/>
<path d="M34.4519 38.0265H35.5941V40.6916H34.4519V38.0265Z" fill="#234BA7"/>
<path d="M48.3764 38.0265H49.5185V40.6916H48.3764V38.0265Z" fill="#234BA7"/>
<path d="M36.302 34.1106C36.9003 34.2193 37.5529 34.3281 38.2056 34.3281C39.4566 34.3281 40.6531 34.1106 41.741 33.621L46.0922 35.1439C46.1466 35.1439 46.201 35.1983 46.3097 35.1983C46.4729 35.1983 46.6361 35.1439 46.7449 35.0352C46.908 34.872 46.9624 34.6544 46.8536 34.4369L45.4939 30.5752C46.4185 29.2154 46.908 27.6925 46.908 26.1152C46.908 23.1237 45.1675 20.4586 42.6112 19.0445C42.1217 18.7725 41.5778 19.2621 41.7954 19.806C41.8497 19.9147 41.9585 20.0235 42.0673 20.0779C44.2973 21.3289 45.7658 23.5588 45.7658 26.1152C45.7658 27.5293 45.2763 28.9435 44.4061 30.1401C44.2973 30.3032 44.2429 30.5208 44.2973 30.6839L45.3851 33.621L42.1217 32.4788C41.9585 32.37 41.741 32.3701 41.5778 32.4244C40.5444 32.9139 39.4022 33.1315 38.26 33.1315C37.7161 33.1315 37.1722 33.0771 36.6283 32.9683C36.5195 32.9683 36.4107 32.9683 36.302 33.0227C35.7036 33.2403 35.758 34.0018 36.302 34.1106Z" fill="#234BA7"/>
<path d="M40.7067 22.7428C40.7067 21.8182 40.5979 20.9479 40.326 20.1321C39.5645 17.467 37.6609 15.237 35.1589 13.8772C33.636 13.1158 31.8411 12.6263 29.9375 12.6263C24.0089 12.6263 19.1682 17.1951 19.1682 22.7428C19.1682 24.7553 19.7665 26.6589 20.9631 28.345L19.2226 33.1857C19.1682 33.4033 19.2226 33.6208 19.3314 33.784C19.4402 33.8928 19.6034 33.9472 19.7665 33.9472C19.8209 33.9472 19.8753 33.9472 19.9841 33.8928L20.9631 33.5664L22.758 32.9137L25.5319 31.9347C25.5863 31.9347 25.5863 31.9891 25.6407 31.9891C27.0004 32.5874 28.4689 32.8593 29.9919 32.8593C31.3516 32.8593 32.6026 32.6418 33.7992 32.2067C37.824 30.7925 40.7067 27.094 40.7067 22.7428ZM29.9375 31.7172C28.4689 31.7172 27.0548 31.3909 25.6951 30.7925C25.5319 30.7381 25.3143 30.7381 25.1512 30.8469L20.6912 32.4242L22.1597 28.4538C22.2141 28.2906 22.2141 28.073 22.0509 27.9098C20.9087 26.387 20.3105 24.5921 20.3105 22.7428C20.3105 17.7933 24.6073 13.7684 29.9375 13.7684C35.2677 13.7684 39.5645 17.7933 39.5645 22.7428C39.5645 27.6923 35.2677 31.7172 29.9375 31.7172Z" fill="#234BA7"/>
<path d="M26.0759 22.7429C26.0759 23.4499 25.4776 24.0482 24.7705 24.0482C24.0634 24.0482 23.4651 23.4499 23.4651 22.7429C23.4651 22.0358 24.0634 21.4375 24.7705 21.4375C25.5319 21.4375 26.0759 22.0358 26.0759 22.7429Z" fill="#234BA7"/>
<path d="M31.298 22.7429C31.298 23.4499 30.6997 24.0482 29.9926 24.0482C29.2856 24.0482 28.6873 23.4499 28.6873 22.7429C28.6873 22.0358 29.2856 21.4375 29.9926 21.4375C30.6997 21.4375 31.298 22.0358 31.298 22.7429Z" fill="#234BA7"/>
<path d="M36.4649 22.7429C36.4649 23.4499 35.8666 24.0482 35.1595 24.0482C34.4525 24.0482 33.8541 23.4499 33.8541 22.7429C33.8541 22.0358 34.4525 21.4375 35.1595 21.4375C35.8666 21.4375 36.4649 22.0358 36.4649 22.7429Z" fill="#234BA7"/>
</g>
<defs>
<clipPath id="clip0_3_21">
<rect width="50" height="47.9798" fill="white"/>
</clipPath>
</defs>
</svg>
