<svg width="50" height="48" viewBox="0 0 50 48" fill="none" xmlns="http://www.w3.org/2000/svg">
<g clip-path="url(#clip0_3_40)">
<path d="M20.7071 41.4141C32.1433 41.4141 41.4141 32.1433 41.4141 20.7071C41.4141 9.27087 32.1433 0 20.7071 0C9.27087 0 0 9.27087 0 20.7071C0 32.1433 9.27087 41.4141 20.7071 41.4141Z" fill="#E30B25" fill-opacity="0.1"/>
<path d="M49.4444 43.1818H46.3131V22.2727C46.3131 20.9091 45.202 19.7475 43.8384 19.7475H34.2424V15.6061C34.2929 15.3535 34.0909 15.1515 33.8384 15.1515H14.0909C13.8384 15.1515 13.6364 15.3535 13.6364 15.6061V35.4545C13.6364 36.0606 13.8889 36.6162 14.2929 37.0202L18.4343 41.1616C18.8384 41.6162 19.4444 41.8687 20.101 41.8687H27.9798V45.505C27.9798 46.8687 29.0909 47.9798 30.4545 47.9798H45.6566C48.0303 47.9798 49.9495 46.0606 49.9495 43.6364C49.899 43.3838 49.697 43.1818 49.4444 43.1818ZM17.7778 39.2424L15.5051 36.9697C16.3636 37.0707 17.2222 36.9697 17.7778 36.8687V39.2424ZM20.101 40.9596C19.3434 40.9596 18.6869 40.3535 18.6869 39.5455V36.3131C18.6869 36.1616 18.6364 36.0606 18.5354 35.9596C18.4343 35.8586 18.2828 35.8586 18.1818 35.8586C17.1717 36.0606 15.404 36.1616 14.6465 35.7576C14.596 35.6566 14.596 35.505 14.596 35.404V16.0606H33.4343V19.798H26.4646C25.1515 19.798 24.0909 20.9091 24.0909 22.2222V26.6667C24.0909 26.9192 24.2929 27.1212 24.5455 27.1212H27.9798V33.0808H20.202C19.9495 33.0808 19.7475 33.2828 19.7475 33.5354C19.7475 33.7879 19.9495 33.9899 20.202 33.9899H27.9798V36.5152H20.202C19.9495 36.5152 19.7475 36.7172 19.7475 36.9697C19.7475 37.2222 19.9495 37.4242 20.202 37.4242H27.9798V41.0101L20.101 40.9596ZM27.9798 22.2222V26.2121H25V22.2222C25 21.3636 25.6566 20.7071 26.5152 20.7071C27.2727 20.7071 27.9798 21.3636 27.9798 22.2222ZM32.0202 43.6364V45.4545C32.0202 46.3131 31.3131 47.0707 30.4545 47.0707C29.596 47.0707 28.8889 46.3636 28.8889 45.4545V22.1717C28.8889 21.6162 28.6869 21.0606 28.3333 20.6566H43.8889C44.7475 20.6566 45.4545 21.3636 45.4545 22.2727V43.1818H32.4242C32.2222 43.1818 32.0202 43.3838 32.0202 43.6364ZM45.6061 47.0707H32.3232C32.6768 46.6162 32.8788 46.0606 32.8788 45.4545V44.0909H48.9899C48.7374 45.7576 47.3232 47.0707 45.6061 47.0707Z" fill="#234BA7"/>
<path d="M38.3333 27.0707H43.3838C43.6364 27.0707 43.8384 26.8686 43.8384 26.6161V24.1414C43.8384 23.8888 43.6364 23.6868 43.3838 23.6868H38.3333C38.0808 23.6868 37.8788 23.8888 37.8788 24.1414V26.6161C37.8788 26.8686 38.0808 27.0707 38.3333 27.0707ZM38.7879 24.5959H42.9293V26.1616H38.7879V24.5959Z" fill="#234BA7"/>
<path d="M30.4547 27.0707H35.5053C35.7578 27.0707 35.9598 26.8686 35.9598 26.6161V24.1414C35.9598 23.8888 35.7578 23.6868 35.5053 23.6868H30.4547C30.2022 23.6868 30.0002 23.8888 30.0002 24.1414V26.6161C30.0002 26.8686 30.2022 27.0707 30.4547 27.0707ZM30.8588 24.5959H35.0002V26.1616H30.8588V24.5959Z" fill="#234BA7"/>
<path d="M43.3842 32.1718C43.6368 32.1718 43.8388 31.9698 43.8388 31.7173V29.091C43.8388 28.8385 43.6368 28.6365 43.3842 28.6365H30.4044C30.1519 28.6365 29.9499 28.8385 29.9499 29.091V31.7173C29.9499 31.9698 30.1519 32.1718 30.4044 32.1718H43.3842ZM30.859 29.5456H42.9297V31.2627H30.859V29.5456Z" fill="#234BA7"/>
<path d="M43.3834 34.2423H30.8582C30.6057 34.2423 30.4036 34.4443 30.4036 34.6969C30.4036 34.9494 30.6057 35.1514 30.8582 35.1514H43.3834C43.636 35.1514 43.838 34.9494 43.838 34.6969C43.838 34.4443 43.636 34.2423 43.3834 34.2423Z" fill="#234BA7"/>
<path d="M43.3834 37.2726H30.8582C30.6057 37.2726 30.4036 37.4746 30.4036 37.7272C30.4036 37.9797 30.6057 38.1817 30.8582 38.1817H43.3834C43.636 38.1817 43.838 37.9797 43.838 37.7272C43.838 37.4746 43.636 37.2726 43.3834 37.2726Z" fill="#234BA7"/>
<path d="M40.2521 40.7575C40.2521 40.5049 40.0501 40.3029 39.7976 40.3029H30.8582C30.6057 40.3029 30.4036 40.5049 30.4036 40.7575C30.4036 41.01 30.6057 41.212 30.8582 41.212H39.7976C40.0501 41.212 40.2521 41.01 40.2521 40.7575Z" fill="#234BA7"/>
<path d="M16.5659 23.3839H22.2224C22.4749 23.3839 22.677 23.1819 22.677 22.9293V19.697C22.677 19.4445 22.4749 19.2425 22.2224 19.2425H16.5659C16.3133 19.2425 16.1113 19.4445 16.1113 19.697V22.9799C16.1113 23.1819 16.3133 23.3839 16.5659 23.3839ZM17.0204 20.1011H21.8184V22.4748H17.0204V20.1011Z" fill="#234BA7"/>
<path d="M22.677 30.7576V27.4747C22.677 27.2222 22.4749 27.0202 22.2224 27.0202H16.5659C16.3133 27.0202 16.1113 27.2222 16.1113 27.4747V30.7576C16.1113 31.0101 16.3133 31.2121 16.5659 31.2121H22.2224C22.4749 31.2121 22.677 31.0101 22.677 30.7576ZM21.8184 30.303H17.0204V27.9293H21.8184V30.303Z" fill="#234BA7"/>
</g>
<defs>
<clipPath id="clip0_3_40">
<rect width="50" height="47.9798" fill="white"/>
</clipPath>
</defs>
</svg>
