<svg width="50" height="48" viewBox="0 0 50 48" fill="none" xmlns="http://www.w3.org/2000/svg">
<g clip-path="url(#clip0_2_4)">
<path d="M22.2826 44.5652C34.589 44.5652 44.5652 34.589 44.5652 22.2826C44.5652 9.97626 34.589 0 22.2826 0C9.97626 0 0 9.97626 0 22.2826C0 34.589 9.97626 44.5652 22.2826 44.5652Z" fill="#E30B25" fill-opacity="0.1"/>
<path d="M49.0257 42.4413L37.6689 28.1692L43.4996 22.3385L45.8928 21.3377C46.0234 21.2942 46.1539 21.1636 46.1974 21.0331L47.2852 18.5964C47.3722 18.3788 47.3288 18.1177 47.1547 17.9437L45.7623 16.5513C45.5882 16.3772 45.3272 16.3337 45.1096 16.4208L42.6729 17.4651C42.5423 17.5086 42.4118 17.6391 42.3683 17.7696L41.3675 20.1628L35.7543 25.7324L32.0123 21.0331C34.4925 19.8583 37.2338 18.901 39.801 18.901C40.0621 18.901 40.2797 18.7269 40.3667 18.5093C40.4537 18.2918 40.3667 18.0307 40.1927 17.8567C40.1057 17.7696 31.3161 10.242 18.6104 18.7704L17.9142 17.9002C17.8272 17.7696 17.6966 17.6826 17.5226 17.6391C17.3485 17.6391 17.218 17.6826 17.0874 17.7696L14.3461 19.9453C14.0851 20.1628 14.0416 20.5545 14.2591 20.8155L21.3082 29.6486C21.3952 29.7791 21.5692 29.8661 21.6998 29.8661C21.7433 29.8661 21.7433 29.8661 21.7868 29.8661C21.9173 29.8661 22.0479 29.8227 22.1784 29.7356L24.9197 27.56C25.1808 27.3424 25.2243 26.9508 25.0067 26.6897L24.3105 25.8195C24.7892 25.4714 25.5724 24.8622 26.6167 24.166L31.3596 30.1272L29.1404 32.3464L28.5748 31.7807C27.9221 31.128 26.7908 31.1715 26.051 31.9113C25.5289 32.4334 25.3548 33.1731 25.5724 33.7823L16.9569 42.3978C16.1302 43.2245 16.1737 44.6604 17.0874 45.5742L18.0882 46.575C18.5234 47.0101 19.089 47.2712 19.6547 47.3147C19.6982 47.3147 19.7417 47.3147 19.7852 47.3147C20.3509 47.3147 20.873 47.0972 21.2647 46.7055L29.8802 38.0901C30.0542 38.1335 30.2283 38.1771 30.4023 38.1771C30.8809 38.1771 31.3596 37.9595 31.7512 37.6114C32.4909 36.8717 32.5344 35.7839 31.8817 35.0877L31.3161 34.522L33.2741 32.5639L44.1523 46.3139C44.6309 46.9231 45.3272 47.2277 46.0234 47.2277C46.5455 47.2277 47.0677 47.0536 47.5028 46.7055L48.6341 45.7918C49.1128 45.4002 49.4609 44.8345 49.5043 44.1818C49.5914 43.5291 49.4173 42.92 49.0257 42.4413ZM21.8739 28.4302L15.5645 20.5109L17.3485 19.075L23.6143 26.9943L21.8739 28.4302ZM19.3936 19.6842C28.5748 13.5924 35.3192 16.1597 38.104 17.8132C31.8817 18.6834 25.3548 23.5133 23.5708 24.9492L19.3936 19.6842ZM27.574 23.5133C28.5748 22.8606 29.6626 22.2079 30.8809 21.5552L34.8841 26.5592L32.1863 29.257L27.574 23.5133ZM30.8809 36.7847C30.6634 37.0022 30.3153 37.0892 30.0977 36.9152C30.0977 36.8717 30.0542 36.8717 30.0107 36.8717H29.9672C29.9237 36.8282 29.8366 36.8282 29.7932 36.8282H29.7496C29.7061 36.8282 29.6626 36.8282 29.5755 36.8717C29.5321 36.8717 29.5321 36.8717 29.4885 36.8717C29.4451 36.8717 29.4015 36.9152 29.358 36.9587C29.358 36.9587 29.3145 37.0022 29.271 37.0022L20.3944 45.8788C20.2203 46.0528 20.0028 46.1399 19.7417 46.0964C19.4371 46.0964 19.176 45.9658 18.9585 45.7047L18.8715 45.6177L28.4442 36.0449C28.6618 35.8274 28.6618 35.4358 28.4442 35.1747C28.2267 34.9571 27.8351 34.9571 27.574 35.1747L18.0012 44.7475L17.9142 44.6604C17.4791 44.2253 17.392 43.5726 17.7836 43.181L26.7037 34.2609C26.7037 34.2609 26.7472 34.2174 26.7472 34.1739C26.7908 34.1304 26.7908 34.0869 26.8343 34.0434C26.8343 33.9998 26.8343 33.9998 26.8778 33.9564C26.8778 33.9128 26.9213 33.8693 26.9213 33.7823V33.7388C26.9213 33.6953 26.9213 33.6083 26.8778 33.5647C26.8778 33.5647 26.8778 33.5212 26.8343 33.5212C26.8343 33.4777 26.7908 33.4342 26.7908 33.3907C26.6167 33.2166 26.7037 32.8685 26.9213 32.6074C27.1824 32.3464 27.5305 32.3029 27.7045 32.4769L31.0115 35.7839C31.1855 36.1755 31.142 36.5236 30.8809 36.7847ZM29.9672 33.2602L42.2812 20.946C42.3248 20.9026 42.3248 20.9026 42.3248 20.859C42.3683 20.8155 42.3683 20.8155 42.4118 20.772L43.3255 18.5093L45.1966 17.7261L45.9798 18.5093L45.1966 20.3369L42.934 21.2507C42.934 21.2507 42.934 21.2507 42.8904 21.2507C42.8469 21.2942 42.7599 21.2942 42.7164 21.3812L30.4458 33.6953L29.9672 33.2602ZM47.8944 44.8345L46.763 45.7483C46.2409 46.1399 45.5012 46.0528 45.1096 45.5742L34.1009 31.7372L36.7986 29.0394L48.0684 43.181C48.286 43.4421 48.373 43.7467 48.3295 44.0513C48.286 44.3559 48.112 44.6604 47.8944 44.8345Z" fill="#234BA7"/>
</g>
<defs>
<clipPath id="clip0_2_4">
<rect width="50" height="47.8261" fill="white"/>
</clipPath>
</defs>
</svg>
