<svg width="50" height="45" viewBox="0 0 50 45" fill="none" xmlns="http://www.w3.org/2000/svg">
<g clip-path="url(#clip0_3_12)">
<path d="M19.3396 38.6792C30.0206 38.6792 38.6792 30.0206 38.6792 19.3396C38.6792 8.65864 30.0206 0 19.3396 0C8.65864 0 0 8.65864 0 19.3396C0 30.0206 8.65864 38.6792 19.3396 38.6792Z" fill="#E30B25" fill-opacity="0.1"/>
<path d="M21.6984 44.8113C21.3012 44.8113 20.904 44.6624 20.606 44.3644C20.3082 44.1162 20.1095 43.719 20.0599 43.3217L18.62 32.9444L18.471 32.8451C17.6269 32.3485 17.0807 31.5045 16.9814 30.5611L16.038 24.0566C15.9387 23.0635 16.2366 22.0705 16.8821 21.3257C17.5773 20.6306 18.5207 20.1837 19.5137 20.1837H20.606C20.8047 20.1837 21.0033 20.283 21.1026 20.432L22.8404 22.6167L24.5783 20.432C24.6775 20.283 24.8762 20.1837 25.0748 20.1837H26.1671C27.1602 20.1837 28.1036 20.5809 28.7491 21.3257C29.3945 22.0705 29.7421 23.0635 29.5932 24.0069L28.7491 30.5114C28.6498 31.4548 28.0539 32.3485 27.2595 32.7954L27.1105 32.8947L25.6706 43.3217C25.6209 43.719 25.4224 44.1162 25.1244 44.3644C24.8265 44.6127 24.4293 44.7617 24.0321 44.7617H21.6984V44.8113ZM17.6766 22.0208C17.18 22.567 16.9814 23.2622 17.0807 23.9573L17.9248 30.4617C17.9745 30.8093 18.1234 31.2066 18.322 31.5045C18.5703 31.8024 18.8682 32.0507 19.2158 32.15C19.3648 32.1996 19.5137 32.3485 19.5137 32.5472L20.9536 43.2225C20.9536 43.5204 21.2516 43.8183 21.5991 43.8183H23.9824C24.33 43.8183 24.5783 43.57 24.6279 43.2225L26.0678 32.5472C26.1175 32.3485 26.2168 32.1996 26.3658 32.15C26.7133 32.001 27.0112 31.8024 27.2595 31.5045C27.5077 31.2066 27.6567 30.859 27.7064 30.4617L28.5504 23.9573C28.6498 23.2622 28.4015 22.5174 27.905 22.0208C27.4581 21.5243 26.763 21.2264 26.0678 21.2264H25.1244L23.3866 23.3615C23.2376 23.5601 22.9894 23.6594 22.7411 23.6594H22.6915C22.3935 23.6594 22.1453 23.5601 21.9963 23.3615L20.2585 21.2264H19.5137C18.8186 21.1767 18.1234 21.4747 17.6766 22.0208ZM36.3955 39.6475C35.4521 39.6475 34.608 39.2999 33.9625 38.6544C33.3171 38.0089 32.9695 37.1152 32.9695 36.2215C32.9695 35.5759 33.1681 34.9305 33.5157 34.3843L33.9129 33.7885H33.1681C32.7212 33.7885 32.324 33.8381 31.8275 33.8381H31.3806C31.0827 33.8381 30.8841 33.6395 30.8344 33.3416C30.8344 33.1926 30.8841 33.0934 30.9834 32.9941C31.0827 32.8947 31.182 32.8451 31.331 32.8451C32.1254 32.7954 32.8702 32.7954 33.5653 32.7458H33.615C33.8633 32.7458 34.1612 32.8947 34.3598 33.0933C34.5584 33.2919 34.6577 33.5899 34.6577 33.8878V34.0367C34.6577 34.285 34.5584 34.5333 34.4094 34.7319C34.1115 35.1291 33.9129 35.6753 33.9129 36.1718C33.9129 36.9662 34.3101 37.711 34.9556 38.2075C35.4025 38.4558 35.899 38.6544 36.3955 38.6544C36.6934 38.6544 36.9914 38.6048 37.2396 38.5055C37.9844 38.2075 38.5802 37.6117 38.7788 36.8173C38.9774 36.0725 38.8285 35.3277 38.332 34.7319C38.183 34.5333 38.0837 34.285 38.0837 34.0367V33.8878C38.0837 33.6395 38.1333 33.4409 38.2823 33.2423C38.3816 33.0437 38.5802 32.8947 38.7788 32.7954C38.8285 32.7458 38.9278 32.7458 38.9775 32.7458C40.2188 32.7954 41.4104 32.8947 42.5524 32.9941L43.049 33.0437L42.9993 32.5472C42.9 31.4548 42.8007 30.3128 42.751 29.1211C42.751 29.0715 42.751 29.0218 42.751 28.9722C42.8007 28.7239 42.9496 28.5253 43.1483 28.3267C43.3468 28.1777 43.5951 28.0784 43.893 28.0784H44.042C44.2903 28.0784 44.5385 28.1777 44.7371 28.3267C45.1343 28.6246 45.6805 28.8233 46.1771 28.8233C46.9715 28.8233 47.7165 28.426 48.2127 27.7805C48.6599 27.135 48.759 26.2909 48.5108 25.5462C48.2127 24.8014 47.617 24.2056 46.8225 24.0069C46.6239 23.9573 46.4253 23.9076 46.2267 23.9076C45.6805 23.9076 45.184 24.1063 44.7371 24.4042C44.5385 24.5531 44.2903 24.6525 44.042 24.6525H43.893C43.6448 24.6525 43.3965 24.5531 43.1483 24.4042C42.9496 24.2552 42.8503 24.0069 42.8007 23.7587C42.8007 23.7587 42.8007 23.7091 42.8007 23.6594C42.8503 22.4677 42.9496 21.2761 43.049 20.1837L43.0986 19.6872L42.6021 19.7368C41.5097 19.8361 40.2684 19.9355 39.0271 19.9851C38.9278 19.9851 38.8782 19.9851 38.8285 19.9355C38.6299 19.8361 38.4313 19.6872 38.332 19.4886C38.183 19.29 38.1333 19.0914 38.1333 18.8431V18.6942C38.1333 18.4459 38.2326 18.1976 38.3816 17.999C38.6795 17.6018 38.8782 17.0556 38.8782 16.5591C38.8782 15.7647 38.4809 15.0199 37.8354 14.5233C37.3886 14.2751 36.892 14.1261 36.3955 14.1261C36.0976 14.1261 35.7997 14.1758 35.5514 14.2751C34.8066 14.573 34.2108 15.1688 34.0122 15.9633C33.8136 16.7081 33.9625 17.4528 34.4591 18.0487C34.608 18.2473 34.7074 18.4955 34.7074 18.7438V18.8927C34.7074 19.1907 34.608 19.4389 34.4094 19.6872C34.2108 19.8858 33.9625 20.0348 33.6646 20.0348H33.615C33.0191 20.0348 32.4233 19.9851 31.7778 19.9851H31.4303C31.1324 19.9851 30.9338 19.7368 30.9834 19.4389C30.9834 19.1907 31.2316 18.9921 31.48 18.9921C32.1254 19.0417 32.6716 19.0417 33.2674 19.0914H34.0122L33.615 18.4459C33.1184 17.6515 32.9695 16.6584 33.1681 15.7647C33.3171 15.1192 33.6646 14.573 34.1115 14.1261C34.5584 13.6792 35.1542 13.3813 35.7997 13.2324C36.048 13.1827 36.2466 13.1827 36.4948 13.1827C37.2892 13.1827 38.0837 13.4806 38.6795 13.9772C39.474 14.6226 39.9705 15.6157 39.9705 16.6584C39.9705 17.3039 39.8216 17.8997 39.474 18.4459L39.0767 19.0914L39.8216 19.0417C40.9635 18.9921 41.9566 18.8927 42.9 18.7934C42.9496 18.7934 42.9993 18.7934 42.9993 18.7934C43.2972 18.7934 43.5951 18.8927 43.7937 19.141C44.042 19.3893 44.1413 19.7368 44.1413 20.0844C44.042 21.0278 43.9427 22.0705 43.893 23.1629L43.8434 23.9076L44.4889 23.5104C45.035 23.1629 45.6805 23.0139 46.326 23.0139C46.8225 23.0139 47.2693 23.1132 47.7165 23.3118C48.7094 23.7587 49.4542 24.6028 49.7024 25.6455L49.7519 25.7944C49.9505 26.8371 49.7024 27.8799 49.0571 28.6743C48.4113 29.4687 47.4184 29.9652 46.3757 29.9652C45.7302 29.9652 45.1343 29.7667 44.5882 29.4191L43.9427 29.0218L43.9924 29.7667C44.042 30.859 44.1413 31.9017 44.2406 32.8451C44.2903 33.1926 44.1413 33.5402 43.893 33.7885C43.6944 33.9871 43.3965 34.136 43.0986 34.136C43.049 34.136 42.9993 34.136 42.9993 34.136C42.0062 34.0367 41.0132 33.9375 39.9208 33.8878L39.176 33.8381L39.5733 34.4836C40.0698 35.2781 40.2188 36.2215 39.9705 37.1152C39.8216 37.7607 39.474 38.3068 38.9775 38.7537C38.4809 39.2006 37.9348 39.4985 37.2892 39.6475C36.8424 39.5978 36.6438 39.6475 36.3955 39.6475ZM22.89 18.4955C21.8474 18.4955 20.904 18.0983 20.1592 17.3535C19.4144 16.6584 19.0172 15.715 19.0172 14.6723C19.0172 13.6296 19.4144 12.6862 20.1592 11.9414C20.904 11.2463 21.8474 10.8491 22.89 10.8491C23.9328 10.8491 24.8762 11.2463 25.6209 11.9911C26.3658 12.7358 26.763 13.6792 26.763 14.7219C26.763 15.7647 26.3658 16.7081 25.6209 17.4528C24.8762 18.0983 23.8831 18.4955 22.89 18.4955ZM22.89 11.8421C22.1453 11.8421 21.4005 12.14 20.904 12.6862C20.3578 13.2324 20.0599 13.9275 20.0599 14.6723C20.0599 15.4171 20.3578 16.1619 20.904 16.6584C21.4501 17.2046 22.1453 17.5025 22.89 17.5025C23.6349 17.5025 24.3796 17.2046 24.8762 16.6584C25.4224 16.1122 25.7202 15.4171 25.7202 14.6723C25.7202 13.9275 25.4224 13.1827 24.8762 12.6862C24.33 12.14 23.6349 11.8421 22.89 11.8421Z" fill="#234BA7"/>
</g>
<defs>
<clipPath id="clip0_3_12">
<rect width="50" height="44.8113" fill="white"/>
</clipPath>
</defs>
</svg>
