<svg width="50" height="53" viewBox="0 0 50 53" fill="none" xmlns="http://www.w3.org/2000/svg">
<g clip-path="url(#clip0_3_7)">
<path d="M21.5789 43.1579C33.4967 43.1579 43.1579 33.4967 43.1579 21.5789C43.1579 9.66122 33.4967 0 21.5789 0C9.66122 0 0 9.66122 0 21.5789C0 33.4967 9.66122 43.1579 21.5789 43.1579Z" fill="#E30B25" fill-opacity="0.1"/>
<path d="M43.5263 38.5624C44.8947 37.194 45.2632 35.2466 44.5263 33.4572C43.8421 31.7729 42.3684 30.7203 40.6316 30.5624C39.7895 28.194 37.4737 26.6151 34.9474 26.6151C34.6316 26.6151 34.3158 26.6151 34 26.6677C31.5263 23.4572 27.2105 23.0361 24.0526 25.1414V22.2466H25.2632C25.8421 22.2466 26.0526 21.6151 25.7368 21.194L22.2105 17.194C22.1053 17.0887 21.8947 16.9835 21.7368 16.9835C21.5789 16.9835 21.3684 17.0361 21.2632 17.194L17.7368 21.194C17.3684 21.5624 17.6842 22.2466 18.2105 22.2466H19.3684V31.1414C18 31.9308 17.1053 33.5098 17.1053 35.194C17.1053 37.7729 19.2105 39.8782 21.7895 39.8782H35.6316V43.7729H34.4737C34.2105 43.7729 34.0526 43.8782 33.8947 44.1414C33.7895 44.4045 33.8421 44.6151 34 44.8256L37.5263 48.8256C37.6316 48.9308 37.8421 49.0361 38 49.0361C38.2105 49.0361 38.3684 48.9835 38.4737 48.8256L42 44.8256C42.2105 44.6151 42.2105 44.4045 42.1053 44.1414C42.0526 43.8782 41.7895 43.7729 41.5263 43.7729H40.3684V39.8782C41.5789 39.8782 42.7368 39.4045 43.5263 38.5624ZM21.8947 18.6151L24.0526 21.0887H19.7368L21.8947 18.6151ZM20.7895 22.2466H22.9474C22.9474 26.1414 22.8947 25.8782 23 26.1414C21.9474 27.2466 21.2105 28.7203 21.1053 30.5624C21 30.5624 20.8947 30.6151 20.7895 30.6151V22.2466ZM18.4737 35.2466C18.4737 33.8782 19.2632 32.7203 20.3684 32.1414C22.0526 31.3519 24.7368 32.6151 24.7368 35.0887C24.7368 35.4572 25 35.7203 25.3684 35.7203C25.7368 35.7203 26 35.4572 26 35.0887C26 32.9308 24.4211 31.0887 22.3158 30.7729C22.6316 25.4572 29.3158 23.194 32.7368 26.9835C30.2632 27.9308 28.5789 30.4045 28.7895 33.1414C28.7895 33.4572 29.1053 33.7203 29.4211 33.7203H29.4737C29.8421 33.7203 30.1053 33.4045 30.0526 33.0361C29.8421 30.194 32.1053 27.7729 35.0526 27.7729C37.1053 27.7729 38.9474 29.0887 39.6316 31.0361C38.1053 31.7203 37.0526 33.2466 37.0526 35.0361C37.0526 35.4045 37.3158 35.6677 37.6842 35.6677C38.0526 35.6677 38.3158 35.4045 38.3158 35.0361C38.3158 33.2993 39.6842 31.9308 41.4211 31.8782C42.4737 32.2466 43.2105 33.0361 43.5263 33.8782C43.9474 34.9308 43.9474 36.4045 42.7895 37.6677C42.1053 38.3519 41.2632 38.6677 40.3158 38.6677H21.8947C20.0526 38.6677 18.4737 37.1414 18.4737 35.2466ZM38.0526 47.4572L35.8947 44.9835H40.2105L38.0526 47.4572ZM37 43.8256V39.9308H39.1579V43.8256H37Z" fill="#234BA7"/>
<path d="M49.2107 35.7204C49.5791 35.7204 49.8423 35.4573 49.8423 35.0888C49.8423 25.4046 42.2633 17.5099 32.6844 17.0888L36.3686 14.2467C36.6317 14.0362 36.6844 13.6151 36.4738 13.4046C36.3159 13.1415 35.8949 13.0888 35.6317 13.2467L30.6844 17.0362C30.4212 17.2467 30.3686 17.6678 30.5791 17.8783L34.3686 22.8256C34.5791 23.0888 35.0002 23.1415 35.2107 22.9309C35.4738 22.7204 35.5265 22.2993 35.3159 22.0888L32.4212 18.2994C41.4212 18.6152 48.5791 26.0362 48.5791 35.0888C48.6317 35.4046 48.9475 35.7204 49.2107 35.7204Z" fill="#234BA7"/>
<path d="M27.9474 48.7203L24.3158 51.5098C24.0526 51.7203 24 52.1414 24.2105 52.3519C24.4211 52.6151 24.8421 52.6679 25.0526 52.4572L30 48.6677C30.3158 48.4045 30.3158 47.9308 30 47.6677L26.3158 42.8782C26.1053 42.6151 25.6842 42.5624 25.4737 42.7729C25.2105 42.9835 25.1579 43.4045 25.3684 43.6151L28.3158 47.4572C19.5789 46.8256 12.7895 39.6151 12.7895 30.7729C12.7895 30.4045 12.5263 30.1414 12.1579 30.1414C11.7895 30.1414 11.5789 30.4045 11.5789 30.7729C11.5789 40.1414 18.7368 47.8782 27.9474 48.7203Z" fill="#234BA7"/>
</g>
<defs>
<clipPath id="clip0_3_7">
<rect width="50" height="52.6316" fill="white"/>
</clipPath>
</defs>
</svg>
