<svg width="21" height="21" viewBox="0 0 21 21" fill="none" xmlns="http://www.w3.org/2000/svg">
<path d="M5.8 20.6C4.9 20.6 4.1 20.3 3.4 19.6C2.8 19 2.4 18.1 2.4 17.2C2.4 16.3 2.7 15.5 3.4 14.8C4 14.2 4.9 13.8 5.8 13.8C6 13.8 6.3 13.8 6.5 13.9L8 9.4L4.9 6.4C4.4 6.6 3.9 6.8 3.4 6.8C2.5 6.8 1.6 6.5 1 5.8C0.4 5.1 0 4.3 0 3.4C0 2.5 0.3 1.6 1 1C1.6 0.4 2.5 0 3.3 0C4.2 0 5 0.3 5.7 1C6.3 1.6 6.7 2.5 6.7 3.4C6.7 3.9 6.6 4.5 6.3 4.9L9.4 7.9L14 6.4C13.9 5.9 13.9 5.4 14 4.9C14.1 4.3 14.4 3.8 14.9 3.3C15.5 2.7 16.4 2.3 17.3 2.3C18.2 2.3 19.1 2.7 19.7 3.3C20.3 3.9 20.7 4.8 20.7 5.7C20.7 6.6 20.4 7.4 19.7 8.1C19.1 8.7 18.2 9.1 17.3 9.1C16.5 9.1 15.7 8.8 15.1 8.3L10 9.9L8.3 15C8.8 15.6 9.1 16.4 9.1 17.2C9.1 18.1 8.8 18.9 8.1 19.6C7.6 20.2 6.7 20.6 5.8 20.6ZM5.8 16C5.5 16 5.1 16.1 4.9 16.4C4.7 16.6 4.5 17 4.5 17.3C4.5 17.6 4.6 18 4.9 18.2C5.1 18.4 5.5 18.6 5.8 18.6C6.2 18.6 6.5 18.5 6.7 18.2C6.9 18 7.1 17.6 7.1 17.3C7.1 17 7 16.6 6.7 16.4C6.5 16.1 6.2 16 5.8 16ZM17.3 4.4C16.9 4.4 16.6 4.5 16.4 4.8C16 5.1 15.9 5.5 16 6C16.1 6.4 16.5 6.8 16.9 6.9C17 6.9 17.1 6.9 17.2 6.9C17.5 6.9 17.9 6.8 18.1 6.5C18.3 6.3 18.5 5.9 18.5 5.6C18.5 5.2 18.4 4.9 18.1 4.7C17.9 4.5 17.6 4.4 17.3 4.4V4.1V4.4ZM3.4 2.1C3 2.1 2.7 2.2 2.4 2.5C2.2 2.7 2.1 3 2.1 3.4C2.1 3.8 2.2 4.1 2.5 4.3C2.7 4.5 3 4.6 3.3 4.6C3.8 4.6 4.3 4.4 4.5 4C4.7 3.6 4.7 3.1 4.5 2.7C4.2 2.3 3.8 2.1 3.4 2.1Z" fill="#E30B25"/>
</svg>
