<svg width="25" height="20" viewBox="0 0 25 20" fill="none" xmlns="http://www.w3.org/2000/svg">
<g clip-path="url(#clip0_1_7)">
<path d="M23.6014 0H0.874126C0.390625 0 0 0.390625 0 0.874126V18.3566C0 18.8402 0.390625 19.2308 0.874126 19.2308H23.6014C24.0849 19.2308 24.4755 18.8402 24.4755 18.3566V0.874126C24.4755 0.390625 24.0849 0 23.6014 0ZM22.5088 3.02666V17.2639H1.96678V3.02666L1.21285 2.43936L2.28638 1.05988L3.45553 1.96952H21.0227L22.1918 1.05988L23.2654 2.43936L22.5088 3.02666ZM21.0227 1.96678L12.2378 8.79589L3.4528 1.96678L2.28365 1.05714L1.21012 2.43663L1.96405 3.02393L11.2954 10.2791C11.5637 10.4877 11.8938 10.6009 12.2337 10.6009C12.5735 10.6009 12.9037 10.4877 13.172 10.2791L22.5088 3.02666L23.2627 2.43936L22.1891 1.05988L21.0227 1.96678Z" fill="#E30B25"/>
</g>
<defs>
<clipPath id="clip0_1_7">
<rect width="25" height="19.2308" fill="white"/>
</clipPath>
</defs>
</svg>
