<svg width="20" height="21" viewBox="0 0 20 21" fill="none" xmlns="http://www.w3.org/2000/svg">
<g clip-path="url(#clip0_1_27)">
<path d="M15.9983 19.6638H1.33319V4.99872H10.1456L11.4788 3.66553H1.33319C0.979608 3.66553 0.640505 3.80599 0.390483 4.05601C0.140461 4.30603 0 4.64513 0 4.99872V19.6638C0 20.0174 0.140461 20.3565 0.390483 20.6065C0.640505 20.8566 0.979608 20.997 1.33319 20.997H15.9983C16.3519 20.997 16.691 20.8566 16.941 20.6065C17.191 20.3565 17.3315 20.0174 17.3315 19.6638V9.66489L15.9983 10.9981V19.6638Z" fill="#E30B25"/>
<path d="M19.6862 3.55888L17.4397 1.31245C17.34 1.21248 17.2216 1.13316 17.0912 1.07905C16.9608 1.02493 16.821 0.99707 16.6798 0.99707C16.5386 0.99707 16.3988 1.02493 16.2684 1.07905C16.138 1.13316 16.0196 1.21248 15.9199 1.31245L6.78087 10.5048L6.04095 13.7111C6.00942 13.8666 6.01274 14.027 6.05065 14.181C6.08856 14.335 6.16013 14.4787 6.26021 14.6017C6.36028 14.7247 6.48638 14.8241 6.62943 14.8925C6.77247 14.961 6.92892 14.9969 7.0875 14.9977C7.16947 15.0067 7.25218 15.0067 7.33414 14.9977L10.5671 14.2844L19.6862 5.07872C19.7861 4.97902 19.8655 4.86058 19.9196 4.73018C19.9737 4.59978 20.0015 4.45998 20.0015 4.3188C20.0015 4.17761 19.9737 4.03782 19.9196 3.90742C19.8655 3.77701 19.7861 3.65857 19.6862 3.55888ZM9.87387 13.0512L7.43413 13.5911L8.00074 11.1714L14.88 4.24547L16.7598 6.12527L9.87387 13.0512ZM17.5131 5.37202L15.6333 3.49222L16.6665 2.439L18.5596 4.33213L17.5131 5.37202Z" fill="#E30B25"/>
</g>
<defs>
<clipPath id="clip0_1_27">
<rect width="20" height="21" fill="white"/>
</clipPath>
</defs>
</svg>
