<svg width="29" height="20" viewBox="0 0 29 20" fill="none" xmlns="http://www.w3.org/2000/svg">
<path d="M24.8182 9.09091C25.3636 8.45455 25.6364 7.54545 25.6364 6.72727C25.6364 5 24.1818 3.54545 22.4545 3.54545C20.7273 3.54545 19.2727 5 19.2727 6.72727C19.2727 7.54545 19.5455 8.36364 20.0909 9.09091C19.5455 9.27273 19.0909 9.63636 18.6364 10C18.1818 9.81818 17.7273 9.63636 17.2727 9.45455C18.4545 8.27273 19.1818 6.54545 19.1818 5C19.1818 2.27273 17 0 14.2727 0C11.5455 0 9.27273 2.18182 9.27273 5C9.27273 6.27273 9.81818 7.72727 10.6364 8.81818L10.7273 8.90909C10.9091 9.09091 11 9.27273 11.1818 9.45455C10.7273 9.63636 10.2727 9.81818 9.81818 10C9.36364 9.63636 8.90909 9.36364 8.36364 9.09091C8.90909 8.45455 9.18182 7.54545 9.18182 6.72727C9.18182 5 7.72727 3.54545 6 3.54545C4.27273 3.54545 2.81818 5 2.81818 6.72727C2.81818 7.54545 3.09091 8.36364 3.63636 9.09091C1.54545 10 0 12.1818 0 14.7273C0 15.2727 0.363636 15.6364 0.909091 15.6364H4.81818C4.45455 16.7273 4.18182 17.9091 4.18182 19.0909C4.18182 19.6364 4.54545 20 5.09091 20H23.5455C24.0909 20 24.4545 19.6364 24.4545 19.0909C24.4545 17.9091 24.1818 16.7273 23.8182 15.6364H27.7273C28.2727 15.6364 28.6364 15.2727 28.6364 14.7273C28.5455 12.1818 27 10 24.8182 9.09091ZM22 8.45455C21.8182 8.36364 21.7273 8.18182 21.5455 8.09091C21.5455 8.09091 21.5455 8.09091 21.4545 8C21.1818 7.63636 21 7.18182 21 6.72727C21 6 21.6364 5.36364 22.3636 5.36364C23.0909 5.36364 23.7273 6 23.7273 6.72727C23.7273 7.63636 23 8.54545 22.3636 8.54545C22.2727 8.63636 22.1818 8.54545 22 8.45455ZM14.2727 1.81818C16 1.81818 17.3636 3.18182 17.3636 5C17.3636 6.72727 16 8.90909 14.2727 9H14.1818C13.8182 9 13.4545 8.81818 13 8.63636C12.6364 8.45455 12.3636 8.18182 12.0909 7.81818L12 7.72727C11.3636 6.90909 11.0909 5.90909 11.0909 5.09091C11.0909 3.18182 12.5455 1.81818 14.2727 1.81818ZM5.63636 8.45455C5.45455 8.36364 5.36364 8.18182 5.18182 8.09091C5.18182 8.09091 5.18182 8.09091 5.18182 8C4.90909 7.63636 4.72727 7.18182 4.72727 6.72727C4.72727 6 5.36364 5.36364 6.09091 5.36364C6.81818 5.36364 7.45455 6 7.45455 6.72727C7.45455 7.63636 6.72727 8.54545 6.09091 8.54545C5.90909 8.63636 5.81818 8.54545 5.63636 8.45455ZM1.90909 13.8182C2.36364 11.9091 4 10.4545 6.09091 10.4545C6.81818 10.4545 7.54545 10.6364 8.18182 11C7.18182 11.7273 6.36364 12.7273 5.63636 13.8182H1.90909ZM6 18.1818C6.45455 14.0909 9.90909 10.8182 14.1818 10.8182H14.2727C14.3636 10.8182 14.3636 10.8182 14.3636 10.8182C18.5455 10.9091 22 14.0909 22.4545 18.1818H6ZM22.9091 13.8182C22.2727 12.7273 21.3636 11.8182 20.3636 11C21 10.6364 21.7273 10.4545 22.4545 10.4545C24.4545 10.4545 26.1818 11.9091 26.6364 13.8182H22.9091Z" fill="#E30B25"/>
</svg>
