<svg width="21" height="21" viewBox="0 0 21 21" fill="none" xmlns="http://www.w3.org/2000/svg">
<g clip-path="url(#clip0_1_4)">
<path d="M14.57 20.0021C14.8356 20.0036 15.0989 19.9522 15.3444 19.8509C15.5899 19.7496 15.8128 19.6005 16 19.4121L18.71 16.7021C18.8963 16.5147 19.0008 16.2613 19.0008 15.9971C19.0008 15.7329 18.8963 15.4795 18.71 15.2921L14.71 11.2921C14.5227 11.1058 14.2692 11.0013 14.005 11.0013C13.7408 11.0013 13.4874 11.1058 13.3 11.2921L11.7 12.8821C10.5923 12.5867 9.56634 12.043 8.70003 11.2921C7.95115 10.4244 7.40766 9.39895 7.11003 8.29209L8.70003 6.69209C8.88628 6.50473 8.99083 6.25128 8.99083 5.98709C8.99083 5.72291 8.88628 5.46946 8.70003 5.28209L4.70003 1.28209C4.51267 1.09584 4.25922 0.991302 3.99503 0.991302C3.73085 0.991302 3.4774 1.09584 3.29003 1.28209L0.590033 4.00209C0.401665 4.18934 0.252479 4.41222 0.15118 4.65774C0.049881 4.90326 -0.00150075 5.1665 3.33665e-05 5.43209C0.0907563 9.27439 1.62611 12.9414 4.30003 15.7021C7.06075 18.376 10.7277 19.9114 14.57 20.0021ZM4.00003 3.41209L6.59003 6.00209L5.30003 7.29209C5.17785 7.40654 5.08636 7.54983 5.03395 7.70882C4.98153 7.86782 4.96987 8.03742 5.00003 8.20209C5.3738 9.87247 6.16514 11.4207 7.30003 12.7021C8.58039 13.8384 10.1291 14.63 11.8 15.0021C11.9622 15.036 12.1303 15.0291 12.2891 14.9819C12.4479 14.9348 12.5926 14.849 12.71 14.7321L14 13.4121L16.59 16.0021L14.59 18.0021C11.2738 17.9167 8.10954 16.5932 5.72003 14.2921C3.41295 11.9016 2.08564 8.7332 2.00003 5.41209L4.00003 3.41209ZM18 9.00209H20C20.026 7.81309 19.8109 6.63115 19.3678 5.5275C18.9247 4.42385 18.2627 3.42134 17.4217 2.58039C16.5808 1.73944 15.5783 1.07746 14.4746 0.634347C13.371 0.191235 12.189 -0.0238367 11 0.00209463V2.00209C11.9279 1.97 12.8525 2.12911 13.7163 2.46953C14.5801 2.80995 15.3647 3.32441 16.0212 3.98094C16.6777 4.63746 17.1922 5.422 17.5326 6.2858C17.873 7.1496 18.0321 8.07419 18 9.00209Z" fill="#E30B25"/>
<path d="M11 6.00195C13.1 6.00195 14 6.90195 14 9.00195H16C16 5.78195 14.22 4.00195 11 4.00195V6.00195Z" fill="#E30B25"/>
</g>
<defs>
<clipPath id="clip0_1_4">
<rect width="21" height="21" fill="white"/>
</clipPath>
</defs>
</svg>
