<svg width="25" height="20" viewBox="0 0 25 20" fill="none" xmlns="http://www.w3.org/2000/svg">
<path d="M16.8 14.7V15.8H5.2C4.9 15.8 4.6 15.9 4.4 16.1L1.7 18.2V1.6H16.9V6.5L18.5 4.7V1.4C18.5 0.6 17.9 0 17.1 0H1.4C0.6 0 0 0.6 0 1.4V18.6C0 19.1 0.3 19.6 0.8 19.9C1 19.9 1.2 20 1.4 20C1.7 20 2 19.9 2.2 19.7L5.2 17.3H17.1C17.9 17.3 18.5 16.7 18.5 15.9V13.1L17.5 14.3C17.3 14.5 17.1 14.6 16.8 14.7Z" fill="#E30B25"/>
<path d="M4.69844 5.4999H13.6984C14.1984 5.4999 14.4984 5.0999 14.4984 4.6999C14.4984 4.2999 14.0984 3.8999 13.6984 3.8999H4.69844C4.19844 3.8999 3.89844 4.2999 3.89844 4.6999C3.89844 5.0999 4.29844 5.4999 4.69844 5.4999Z" fill="#E30B25"/>
<path d="M14.4984 8.60005C14.4984 8.20005 14.0984 7.80005 13.6984 7.80005H4.69844C4.19844 7.80005 3.89844 8.20005 3.89844 8.60005C3.89844 9.10005 4.29844 9.40005 4.69844 9.40005H13.6984C14.1984 9.40005 14.4984 9.00005 14.4984 8.60005Z" fill="#E30B25"/>
<path d="M3.89844 12.5C3.89844 13 4.29844 13.3 4.69844 13.3H12.4984L12.7984 11.7H4.69844C4.29844 11.7 3.89844 12 3.89844 12.5Z" fill="#E30B25"/>
<path d="M15.3984 10.0001L20.1984 4.6001L22.4984 6.6001L17.6984 12.0001L15.3984 10.0001Z" fill="#E30B25"/>
<path d="M24.1 4.1999L22.5 2.7999C22.3 2.5999 22 2.5999 21.9 2.7999L21 3.7999L23.3 5.7999L24.2 4.6999C24.3 4.5999 24.3 4.2999 24.1 4.1999Z" fill="#E30B25"/>
<path d="M14.2992 14.1L16.1992 13.5C16.2992 13.5 16.3992 13.4 16.3992 13.4L16.9992 12.8L14.6992 10.8L14.0992 11.4C13.9992 11.5 13.9992 11.6 13.9992 11.6L13.6992 13.6C13.6992 13.9 13.9992 14.2 14.2992 14.1Z" fill="#E30B25"/>
</svg>
