<svg width="50" height="44" viewBox="0 0 50 44" fill="none" xmlns="http://www.w3.org/2000/svg">
<g clip-path="url(#clip0_10_4)">
<path opacity="0.1" d="M21.3995 43.75C33.218 43.75 42.7989 33.9562 42.7989 21.875C42.7989 9.79377 33.218 0 21.3995 0C9.58086 0 0 9.79377 0 21.875C0 33.9562 9.58086 43.75 21.3995 43.75Z" fill="#234BA7"/>
<path d="M49.6996 28.125C49.348 27.6562 40.9496 16.5625 30.3247 16.5625C19.6997 16.5625 11.3013 27.6562 10.9497 28.125C10.7544 28.3593 10.7544 28.7109 10.9497 28.9453C11.3013 29.414 19.6997 40.4687 30.3247 40.4687C40.9496 40.4687 49.348 29.375 49.6996 28.9062C49.8949 28.7109 49.8949 28.3203 49.6996 28.125ZM30.3247 39.1016C21.4966 39.1016 14.0356 30.5078 12.3559 28.5156C14.0356 26.5234 21.4966 17.9296 30.3247 17.9296C39.1527 17.9296 46.6137 26.5234 48.2934 28.5156C46.6137 30.5078 39.1527 39.1016 30.3247 39.1016Z" fill="#E30B25"/>
<path d="M30.3244 22.4609C27.0041 22.4609 24.3088 25.1953 24.3088 28.5156C24.3088 31.8359 27.0041 34.5703 30.3244 34.5703C33.6447 34.5703 36.34 31.8359 36.34 28.5156C36.34 25.1953 33.6447 22.4609 30.3244 22.4609ZM30.3244 33.2031C27.7854 33.2031 25.715 31.1328 25.715 28.5547C25.715 25.9766 27.7854 23.8672 30.3244 23.8672C32.8635 23.8672 34.9338 25.9375 34.9338 28.5156C34.9338 31.0937 32.8635 33.2031 30.3244 33.2031Z" fill="#E30B25"/>
<path d="M30.325 13.6719C30.6766 13.6719 31.0281 13.3594 31.0281 12.9688V8.125C31.0281 7.73437 30.6766 7.42188 30.325 7.42188C29.9734 7.42188 29.6219 7.73437 29.6219 8.125V12.9688C29.6219 13.3203 29.9734 13.6719 30.325 13.6719Z" fill="#E30B25"/>
<path d="M19.426 15.8202C19.5822 15.9765 19.7385 16.0155 19.9338 16.0155C20.1291 16.0155 20.2854 15.9765 20.4416 15.8202C20.715 15.5468 20.715 15.1171 20.4416 14.8437L17.0432 11.4062C16.7697 11.1327 16.34 11.1327 16.0666 11.4062C15.7932 11.6796 15.7932 12.1093 16.0666 12.3827L19.426 15.8202Z" fill="#E30B25"/>
<path d="M40.7152 16.0157C40.9105 16.0157 41.0668 15.9766 41.223 15.8204L44.6215 12.3438C44.8949 12.0704 44.8949 11.6407 44.6215 11.3673C44.348 11.0938 43.9184 11.0938 43.6449 11.3673L40.2465 14.8438C39.973 15.1173 39.973 15.547 40.2465 15.8204C40.3246 15.9766 40.5199 16.0157 40.7152 16.0157Z" fill="#E30B25"/>
</g>
<defs>
<clipPath id="clip0_10_4">
<rect width="50" height="43.75" fill="white"/>
</clipPath>
</defs>
</svg>
