<svg width="80" height="80" viewBox="0 0 80 80" fill="none" xmlns="http://www.w3.org/2000/svg">
<g clip-path="url(#clip0_20_2)">
<path d="M35.0609 71.68C54.4244 71.68 70.1217 55.6339 70.1217 35.84C70.1217 16.0461 54.4244 0 35.0609 0C15.6973 0 0 16.0461 0 35.84C0 55.6339 15.6973 71.68 35.0609 71.68Z" fill="#E30B25" fill-opacity="0.1"/>
<path d="M72.4448 28.8001C72.1318 28.3201 71.5059 28.3201 71.0362 28.6401L70.88 28.8001C70.567 29.1201 70.4102 29.7601 70.7232 30.2401C75.1059 36.1601 77.1405 43.6801 76.3578 51.0401C75.5757 58.4001 72.1318 65.28 66.6534 70.24C61.1754 75.2 53.9754 77.76 46.7754 77.44C39.4189 77.12 32.532 74.08 27.3667 68.8C22.2015 63.3601 19.0711 56.3201 18.9146 48.8001C18.6015 41.2801 21.1059 34.0801 25.958 28.4801C30.8102 22.8801 37.3841 19.2001 44.7407 18.4001C51.9407 17.6001 59.2971 19.6801 65.0886 24.1601C65.5578 24.4801 66.0275 24.4801 66.3405 24.0001L66.4973 23.8401C66.8102 23.3601 66.8102 22.7201 66.3405 22.4001C59.7667 17.6001 51.6276 15.3601 43.4884 16.4801C35.3494 17.7601 27.9928 22.0801 23.1407 28.8001C18.132 35.5201 16.0972 43.8401 17.1928 52.1601C18.2885 60.4801 22.6711 68 29.245 72.96C34.5667 77.12 40.9841 79.36 47.7146 79.36C55.3841 79.36 62.8972 76.48 68.5318 71.2C74.167 65.92 77.767 58.5601 78.5491 50.7201C79.1757 42.8801 76.9843 35.0401 72.4448 28.8001Z" fill="#234BA7"/>
<path d="M60.2361 30.7199C60.3926 30.7199 60.3926 30.7199 60.2361 30.7199C60.7057 30.0799 60.5491 29.4399 60.0795 29.1199C56.323 26.3999 51.7839 25.1199 47.0883 25.2799C42.5491 25.4399 38.01 27.0399 34.41 29.9199C30.81 32.7999 27.9926 36.7999 26.7404 41.2799C25.4883 45.7599 25.4883 50.5599 26.897 54.8799C28.3057 59.3599 31.123 63.1999 34.8796 65.92C38.6361 68.64 43.1752 70.08 47.7144 70.08C52.097 70.08 56.323 68.8 59.923 66.24C63.523 63.8399 66.3405 60.3199 68.0621 56.1599C69.7837 51.9999 70.2534 47.5199 69.4707 43.1999C69.0016 40.3199 67.7491 37.4399 66.1837 34.8799C66.0275 34.7199 65.8707 34.5599 65.5578 34.3999C65.2448 34.3999 65.088 34.3999 64.775 34.5599C64.775 34.5599 64.6189 34.5599 64.6189 34.7199C64.3059 35.0399 64.1491 35.6799 64.4621 35.9999C66.0275 38.2399 66.9664 40.7999 67.4362 43.5199C68.375 48.1599 67.5923 52.9599 65.4016 57.1199C63.21 61.2799 59.61 64.48 55.3839 66.24C51.1578 68 46.3057 68.16 41.923 66.88C37.5404 65.44 33.7839 62.5599 31.123 58.5599C28.4621 54.5599 27.523 49.9199 27.9926 45.1199C28.4621 40.4799 30.497 35.9999 33.7839 32.6399C37.0708 29.2799 41.4535 27.1999 45.9926 26.8799C50.5317 26.3999 55.2274 27.6799 58.9839 30.3999C59.4534 31.1999 59.923 31.1999 60.2361 30.7199Z" fill="#234BA7"/>
<path d="M43.9578 37.92C46.4621 36.96 49.4361 36.96 51.9404 38.08C52.2534 38.24 52.723 38.24 53.0361 37.92C53.1926 37.76 53.1926 37.76 53.1926 37.6C53.3491 37.28 53.3491 37.12 53.1926 36.8C53.0361 36.48 52.8796 36.32 52.723 36.16C49.2796 34.56 45.21 34.72 41.7665 36.64C38.323 38.56 35.9752 41.92 35.5057 45.76C34.8796 49.6 36.1317 53.6 38.7926 56.48C41.4534 59.36 45.21 60.8 49.123 60.32C52.8796 59.84 56.323 57.76 58.3578 54.4C60.3926 51.04 60.7057 46.88 59.297 43.2C59.1404 42.88 58.9839 42.72 58.8274 42.56C58.5143 42.4 58.3578 42.4 58.0448 42.56C57.8883 42.56 57.7317 42.72 57.7317 42.72C57.4187 43.04 57.2621 43.52 57.4187 43.84C58.3578 46.4 58.3578 49.44 57.2621 52C56.1665 54.56 54.1317 56.64 51.4708 57.6C48.9665 58.56 45.9926 58.56 43.4883 57.44C40.9839 56.32 38.9491 54.24 38.01 51.52C37.0708 48.96 37.0708 45.92 38.1665 43.36C39.4187 40.8 41.4534 38.88 43.9578 37.92Z" fill="#234BA7"/>
<path d="M78.3923 20H76.3578L79.175 17.12C79.488 16.64 79.488 16 79.175 15.68C78.8621 15.36 78.2362 15.2 77.7664 15.68L74.9491 18.56V16.32C74.9491 15.68 74.4794 15.36 74.0102 15.36C73.3837 15.36 73.0707 15.84 73.0707 16.32V20.48L48.6534 45.28C47.8708 44.96 47.0882 44.96 46.4621 45.44C45.836 45.76 45.3665 46.56 45.2099 47.2C45.0534 48 45.2099 48.8 45.6795 49.44C46.1491 50.08 46.9317 50.4 47.7143 50.4C48.0273 50.4 48.3404 50.4 48.6534 50.24C49.2795 49.92 49.7491 49.44 50.0621 48.8C50.3752 48.16 50.3752 47.36 50.0621 46.72L74.3232 22.08H78.3923C79.0189 22.08 79.3318 21.6 79.3318 21.12C79.488 20.48 79.0189 20 78.3923 20Z" fill="#234BA7"/>
</g>
<defs>
<clipPath id="clip0_20_2">
<rect width="80" height="79.36" fill="white"/>
</clipPath>
</defs>
</svg>
